<?xml version="1.0" encoding="UTF-8" standalone="no"?>
<!DOCTYPE svg PUBLIC "-//W3C//DTD SVG 1.1//EN" "http://www.w3.org/Graphics/SVG/1.1/DTD/svg11.dtd">
<svg width="100%" height="100%" viewBox="0 0 100 100" version="1.1" xmlns="http://www.w3.org/2000/svg" xmlns:xlink="http://www.w3.org/1999/xlink" xml:space="preserve" xmlns:serif="http://www.serif.com/" style="fill-rule:evenodd;clip-rule:evenodd;stroke-linejoin:round;stroke-miterlimit:2;">
    <g transform="matrix(-1,0,0,1,100,0)">
        <path d="M25.632,42.051L24.432,42.15L24.332,42.2C23.865,42.2 23.632,41.95 23.632,41.45C23.599,41.25 23.648,41.067 23.782,40.9C23.915,40.733 24.082,40.65 24.282,40.65L25.482,40.551C25.682,40.517 25.865,40.567 26.032,40.7C26.199,40.834 26.282,41 26.282,41.2C26.349,41.767 26.132,42.051 25.632,42.051ZM28.782,40.301L29.832,40.301C31.798,40.301 34.482,40.467 37.882,40.801C40.982,41.067 43.282,41.084 44.782,40.851C46.749,40.483 49.482,39.851 52.982,38.95C56.882,37.95 59.915,37.45 62.082,37.45C62.782,37.45 63.865,37.817 65.332,38.551C66.599,39.184 67.482,39.5 67.982,39.5L68.582,39.5C69.082,39.4 69.365,39.601 69.432,40.101C69.532,40.601 69.332,40.884 68.832,40.95C68.632,40.983 68.349,41 67.982,41C67.215,41 66.099,40.65 64.632,39.95C63.365,39.284 62.515,38.95 62.082,38.95C59.915,38.95 56.999,39.45 53.332,40.45C49.232,41.517 46.465,42.15 45.032,42.351C44.298,42.483 43.315,42.551 42.082,42.551C40.548,42.551 39.099,42.467 37.732,42.301C34.132,42 31.499,41.851 29.832,41.851L28.782,41.851C28.282,41.851 28.032,41.584 28.032,41.051C28.032,40.551 28.282,40.301 28.782,40.301ZM21.482,41.9C21.548,42.101 21.515,42.284 21.382,42.45C21.249,42.617 21.082,42.717 20.882,42.75C19.648,42.983 18.398,43.284 17.132,43.65C15.699,44.117 14.265,44.667 12.832,45.301L17.332,44.4C20.199,43.767 24.315,43.784 29.682,44.45C35.015,44.983 38.449,45.801 39.982,46.9C40.415,47.2 40.482,47.551 40.182,47.95C40.015,48.184 39.798,48.301 39.532,48.301L39.082,48.15C37.715,47.25 34.532,46.5 29.532,45.9C24.298,45.301 20.349,45.284 17.682,45.851C13.949,46.617 11.565,47.084 10.532,47.25L8.432,47.7C8.065,47.801 7.782,47.667 7.582,47.301C7.415,46.9 7.499,46.567 7.832,46.301C10.332,44.634 13.282,43.267 16.682,42.2C17.915,41.867 19.232,41.551 20.632,41.25C20.832,41.217 21.015,41.25 21.182,41.351C21.349,41.483 21.449,41.667 21.482,41.9ZM70.682,37.5C71.182,36.334 71.432,35 71.432,33.5C71.432,30.7 71.582,28.967 71.882,28.301C72.615,26.434 74.382,25.5 77.182,25.5C80.715,25.5 83.548,25.717 85.682,26.15C86.182,26.284 86.365,26.601 86.232,27.101C86.099,27.601 85.798,27.784 85.332,27.65C83.499,27.25 80.782,27.051 77.182,27.051C75.082,27.051 73.782,27.65 73.282,28.851C73.082,29.483 72.982,31.034 72.982,33.5C72.982,35.233 72.665,36.767 72.032,38.101L71.532,39.051C71.365,39.351 71.148,39.5 70.882,39.5L70.532,39.351C70.365,39.217 70.249,39.051 70.182,38.851C70.115,38.65 70.148,38.467 70.282,38.301L70.682,37.5ZM71.982,44.9C72.949,44.101 73.615,43.434 73.982,42.9C74.648,41.4 75.382,39.834 76.182,38.2C77.515,35.834 78.999,34.301 80.632,33.601C81.632,33.134 83.982,32.851 87.682,32.75L88.982,32.45C89.449,32.284 89.765,32.417 89.932,32.851C90.165,33.317 90.032,33.634 89.532,33.801C88.898,34.067 88.315,34.2 87.782,34.2C84.382,34.367 82.199,34.634 81.232,35C79.898,35.567 78.682,36.884 77.582,38.95C77.015,39.917 76.265,41.467 75.332,43.601C74.898,44.434 73.765,45.534 71.932,46.9L71.632,47.15L71.432,48.25C71.165,49.65 71.032,50.634 71.032,51.2C71.032,51.834 71.465,52.517 72.332,53.25C73.499,54.317 74.082,55.434 74.082,56.601C74.082,58.267 73.648,59.75 72.782,61.051C71.782,62.517 70.665,63.25 69.432,63.25C69.298,63.284 69.148,63.25 68.982,63.15C68.815,63.017 68.699,62.817 68.632,62.551C68.599,60.45 68.548,59.217 68.482,58.851C68.349,58.384 67.832,57.867 66.932,57.301L66.332,56.95C65.898,56.717 65.365,56.351 64.732,55.851C64.599,55.717 64.515,55.551 64.482,55.351C64.449,55.15 64.499,54.967 64.632,54.801C64.765,54.667 64.932,54.584 65.132,54.551C65.398,54.517 65.599,54.567 65.732,54.7C66.032,54.967 66.499,55.267 67.132,55.601L67.732,55.95C69.165,56.917 69.915,57.801 69.982,58.601L70.082,59.801C70.482,58.934 70.682,58.284 70.682,57.851C70.682,57.483 70.215,56.934 69.282,56.2L68.782,55.851C67.115,54.65 66.282,53.5 66.282,52.4L66.332,51.65L64.782,53.101C64.449,53.4 63.982,53.784 63.382,54.25C62.749,54.75 62.032,55.2 61.232,55.601C60.432,56.867 59.349,58.217 57.982,59.65C55.382,62.45 54.298,64.9 54.732,67C55.199,69.2 55.932,70.517 56.932,70.95C58.132,71.483 59.032,72.15 59.632,72.95L61.432,72.95C61.632,72.95 61.815,73.034 61.982,73.2C62.115,73.334 62.182,73.517 62.182,73.75C62.182,74.25 61.932,74.5 61.432,74.5L48.382,74.5C47.882,74.5 47.632,74.25 47.632,73.75C47.632,73.217 47.882,72.95 48.382,72.95L49.532,72.95L48.232,68.9C47.165,65.233 46.632,63.317 46.632,63.15L46.632,63C46.632,61.967 47.282,60.5 48.582,58.601C49.482,57.4 50.032,56.483 50.232,55.851C49.032,55.317 47.715,54.534 46.282,53.5L45.132,52.601C44.765,52.301 44.732,51.95 45.032,51.551C45.332,51.15 45.682,51.101 46.082,51.4L47.232,52.301C48.599,53.301 49.982,54.117 51.382,54.75C52.115,55.017 52.648,55.184 52.982,55.25C52.715,54.65 52.282,53.851 51.682,52.851L49.532,49.351C49.398,49.184 49.365,48.983 49.432,48.75C49.499,48.551 49.615,48.4 49.782,48.301C49.949,48.167 50.132,48.134 50.332,48.2C50.532,48.267 50.682,48.384 50.782,48.551L52.932,52.101C54.032,53.801 54.699,55.101 54.932,56L54.932,56.051C55.032,56.351 55.082,56.634 55.082,56.9C55.082,57.667 54.382,58.983 52.982,60.851C51.749,62.45 51.132,63.634 51.132,64.4L53.482,72.95L57.432,72.95L56.282,72.351C54.815,71.65 53.798,69.983 53.232,67.351C52.699,64.65 53.932,61.717 56.932,58.551C58.232,57.184 59.265,55.884 60.032,54.65C60.632,53.584 60.932,52.7 60.932,52C60.932,51.2 60.648,50.084 60.082,48.65L59.932,48.15C59.765,47.684 59.898,47.367 60.332,47.2C60.832,46.967 61.165,47.101 61.332,47.601L61.532,48.101C62.132,49.634 62.432,50.934 62.432,52C62.432,52.4 62.382,52.767 62.282,53.101L63.782,52L66.632,49.2L67.082,46.601C67.115,46.367 67.215,46.184 67.382,46.051C67.582,45.95 67.782,45.917 67.982,45.95C68.182,45.983 68.349,46.084 68.482,46.25C68.615,46.417 68.648,46.617 68.582,46.851L68.132,49.7C67.932,51.134 67.832,52.034 67.832,52.4C67.832,52.967 68.432,53.7 69.632,54.601L70.282,55.051C71.548,56.084 72.182,57.017 72.182,57.851C72.182,58.384 72.032,59.017 71.732,59.75C72.298,58.784 72.582,57.733 72.582,56.601C72.582,55.9 72.148,55.184 71.282,54.45C70.082,53.384 69.482,52.301 69.482,51.2C69.482,50.634 69.648,49.551 69.982,47.95L70.582,44.25C70.615,44.017 70.715,43.834 70.882,43.7C71.048,43.601 71.232,43.567 71.432,43.601C71.632,43.634 71.798,43.733 71.932,43.9C72.065,44.101 72.099,44.301 72.032,44.5L71.982,44.9ZM60.182,44.801L60.282,45.051C60.548,45.483 60.432,45.817 59.932,46.051L59.632,46.101C59.332,46.101 59.099,45.967 58.932,45.7L58.732,45.15C58.599,44.684 58.782,44.384 59.282,44.25C59.749,44.084 60.048,44.267 60.182,44.801ZM41.382,48.851C41.715,48.483 42.082,48.45 42.482,48.75L43.582,49.601C44.048,49.9 44.115,50.25 43.782,50.65C43.648,50.851 43.432,50.95 43.132,50.95C42.965,50.95 42.832,50.917 42.732,50.851L41.482,49.95C41.115,49.65 41.082,49.284 41.382,48.851ZM51.632,56.5C51.398,57.2 50.815,58.2 49.882,59.5C48.715,61.101 48.132,62.25 48.132,62.95L51.132,72.95L51.882,72.95L51.132,70.25C50.099,66.65 49.582,64.7 49.582,64.4C49.582,63.334 50.315,61.851 51.782,59.95C52.949,58.384 53.532,57.384 53.532,56.95L51.632,56.5ZM64.732,74.5C64.232,74.5 63.982,74.25 63.982,73.75C63.982,73.217 64.232,72.95 64.732,72.95L65.282,72.95C65.482,72.95 65.665,73.034 65.832,73.2C65.965,73.334 66.032,73.517 66.032,73.75C66.032,74.25 65.782,74.5 65.282,74.5L64.732,74.5ZM78.832,28.7C78.832,28.2 79.099,27.95 79.632,27.95L80.632,27.95C81.132,27.95 81.382,28.2 81.382,28.7C81.382,28.9 81.315,29.084 81.182,29.25C81.015,29.417 80.832,29.5 80.632,29.5L79.632,29.5C79.099,29.5 78.832,29.233 78.832,28.7ZM82.182,30.351C87.249,30.45 90.165,30.534 90.932,30.601L90.932,30.5C90.298,29.667 89.382,29 88.182,28.5C88.015,28.434 87.882,28.301 87.782,28.101C87.715,27.9 87.732,27.7 87.832,27.5C87.898,27.334 88.032,27.2 88.232,27.101C88.432,27.034 88.648,27.051 88.882,27.15C90.315,27.784 91.449,28.65 92.282,29.75C92.382,29.917 92.432,30.067 92.432,30.2L92.482,31.45C92.548,31.684 92.449,31.917 92.182,32.15C92.082,32.25 91.932,32.301 91.732,32.301L91.482,32.2C90.949,32.067 87.832,31.967 82.132,31.9C81.565,31.9 81.315,31.634 81.382,31.101C81.382,30.667 81.648,30.417 82.182,30.351Z"/>
    </g>
</svg>
