<?xml version="1.0" encoding="UTF-8" standalone="no"?>
<!DOCTYPE svg PUBLIC "-//W3C//DTD SVG 1.1//EN" "http://www.w3.org/Graphics/SVG/1.1/DTD/svg11.dtd">
<svg width="100%" height="100%" viewBox="0 0 100 100" version="1.1" xmlns="http://www.w3.org/2000/svg" xmlns:xlink="http://www.w3.org/1999/xlink" xml:space="preserve" xmlns:serif="http://www.serif.com/" style="fill-rule:evenodd;clip-rule:evenodd;stroke-linejoin:round;stroke-miterlimit:2;">
    <g transform="matrix(1,0,0,1,0.218771,-2.0471)">
        <g transform="matrix(-1.13966,2.79136e-16,2.79136e-16,1.13966,106.765,-4.93577)">
            <path d="M87.782,27.593L87.833,27.489C87.901,27.32 88.037,27.184 88.242,27.082C88.444,27.014 88.666,27.032 88.855,27.132C90.319,27.779 91.46,28.647 92.277,29.735C92.379,29.906 92.431,30.059 92.431,30.195L92.481,31.472C92.55,31.71 92.447,31.931 92.175,32.135C92.073,32.237 91.92,32.288 91.715,32.288L91.46,32.187C91.342,32.16 91.223,32.143 91.102,32.135C90.158,32.035 87.612,31.958 83.466,31.905C83.028,31.894 82.576,31.885 82.112,31.88C81.567,31.88 81.329,31.625 81.396,31.114C81.396,30.672 81.652,30.417 82.163,30.349C87.237,30.45 90.166,30.535 90.949,30.604L90.949,30.5C90.302,29.684 89.382,29.02 88.191,28.51C88.02,28.441 87.884,28.306 87.781,28.102C87.725,27.937 87.725,27.757 87.781,27.592L87.782,27.593ZM26.279,41.297C26.324,41.79 26.103,42.037 25.616,42.037L24.44,42.139L24.338,42.19C23.894,42.19 23.656,41.985 23.623,41.578L23.623,41.476C23.588,41.275 23.644,41.069 23.776,40.914C23.895,40.752 24.086,40.657 24.287,40.659L25.462,40.557C25.667,40.522 25.854,40.574 26.024,40.71C26.194,40.846 26.279,41.016 26.279,41.22C26.282,41.246 26.282,41.271 26.279,41.297ZM65.689,40.43C65.367,40.29 65.019,40.127 64.642,39.944C63.382,39.298 62.531,38.974 62.088,38.974C59.908,38.974 56.997,39.468 53.353,40.454C49.233,41.509 46.457,42.139 45.027,42.344C44.312,42.479 43.324,42.547 42.063,42.547C41.686,42.547 41.311,42.539 40.94,42.521C39.864,42.5 38.79,42.423 37.722,42.292C34.112,41.985 31.472,41.833 29.804,41.833L28.782,41.833C28.319,41.833 28.063,41.62 28.016,41.195L28.016,41.067C28.016,40.557 28.271,40.302 28.782,40.302L29.804,40.302C31.779,40.302 34.47,40.472 37.875,40.812C40.975,41.084 43.272,41.102 44.771,40.863C46.746,40.488 49.488,39.859 52.995,38.973C56.877,37.953 59.908,37.443 62.088,37.443C62.769,37.443 63.842,37.817 65.306,38.566C66.6,39.179 67.486,39.484 67.962,39.484L68.575,39.484C69.074,39.386 69.363,39.581 69.444,40.071L69.444,40.098C69.546,40.608 69.341,40.898 68.831,40.965C68.626,40.999 68.337,41.015 67.961,41.015C67.405,41.015 66.647,40.82 65.689,40.43ZM70.465,39.306C70.319,39.198 70.211,39.046 70.159,38.872C70.089,38.681 70.128,38.465 70.261,38.311L70.669,37.494C71.18,36.337 71.436,35.011 71.436,33.513C71.436,30.723 71.589,28.987 71.896,28.307C72.611,26.435 74.364,25.5 77.156,25.5C80.699,25.5 83.542,25.72 85.687,26.163C86.198,26.3 86.385,26.605 86.25,27.082C86.245,27.1 86.236,27.117 86.224,27.132C86.088,27.604 85.791,27.774 85.33,27.644C83.491,27.234 80.767,27.031 77.157,27.031C75.08,27.031 73.786,27.644 73.275,28.868C73.07,29.48 72.968,31.028 72.968,33.513C72.968,35.249 72.662,36.779 72.048,38.106L71.538,39.076C71.368,39.349 71.146,39.484 70.874,39.484L70.465,39.306ZM81.396,28.715C81.396,28.92 81.323,29.119 81.192,29.276C81.034,29.408 80.835,29.48 80.63,29.48L79.61,29.48C79.099,29.48 78.843,29.226 78.843,28.715C78.843,28.204 79.099,27.949 79.61,27.949L80.631,27.949C81.142,27.949 81.397,28.204 81.397,28.715L81.396,28.715ZM59.942,46.069L59.636,46.12C59.33,46.12 59.091,45.984 58.92,45.712L58.716,45.15C58.58,44.674 58.768,44.368 59.278,44.231C59.755,44.095 60.062,44.282 60.198,44.793L60.3,45.048C60.538,45.49 60.419,45.831 59.942,46.069ZM64.259,53.547C64.006,53.757 63.709,53.988 63.365,54.235C62.751,54.746 62.037,55.205 61.219,55.615C60.436,56.873 59.363,58.217 58.001,59.645C55.379,62.437 54.289,64.887 54.732,66.996C55.208,69.208 55.941,70.536 56.929,70.978C58.12,71.488 59.023,72.15 59.636,72.968L61.424,72.968C61.628,72.968 61.815,73.053 61.985,73.224C62.121,73.358 62.195,73.543 62.19,73.734C62.19,74.244 61.935,74.5 61.424,74.5L48.398,74.5C47.888,74.5 47.632,74.244 47.632,73.734C47.632,73.224 47.887,72.969 48.398,72.969L49.522,72.969L48.245,68.885C47.155,65.243 46.61,63.338 46.61,63.168L46.61,63.016C46.61,61.96 47.274,60.497 48.603,58.625C49.488,57.4 50.033,56.481 50.237,55.869C49.045,55.324 47.734,54.542 46.304,53.521L45.128,52.603C44.784,52.32 44.724,51.997 44.95,51.633C44.976,51.598 45.001,51.563 45.027,51.531C45.333,51.156 45.69,51.122 46.099,51.429L47.223,52.297C48.585,53.317 49.964,54.134 51.36,54.747C52.11,55.019 52.654,55.188 52.995,55.257C52.723,54.645 52.28,53.845 51.667,52.857L50.722,51.327L49.522,49.336C49.386,49.165 49.352,48.979 49.419,48.774C49.486,48.569 49.606,48.417 49.777,48.314C49.932,48.181 50.147,48.142 50.339,48.213C50.531,48.271 50.695,48.398 50.799,48.57L52.944,52.092C54.034,53.793 54.698,55.104 54.936,56.022L54.936,56.073C55.039,56.345 55.089,56.618 55.089,56.891C55.089,57.673 54.392,59 52.995,60.871C51.735,62.47 51.105,63.645 51.105,64.393L53.455,72.969L57.439,72.969L56.265,72.355C54.8,71.641 53.795,69.974 53.25,67.354C52.706,64.665 53.932,61.739 56.929,58.574C58.223,57.18 59.261,55.869 60.044,54.644C60.624,53.59 60.914,52.704 60.914,51.989C60.914,51.207 60.641,50.102 60.096,48.672L59.942,48.162C59.772,47.686 59.908,47.362 60.352,47.192C60.828,46.954 61.152,47.09 61.322,47.601L61.526,48.111C61.911,49.071 62.174,49.939 62.318,50.714C62.403,51.172 62.445,51.598 62.445,51.989C62.445,52.399 62.395,52.772 62.292,53.113L63.773,51.989L66.634,49.183L66.813,48.213L67.093,46.579C67.126,46.376 67.236,46.193 67.4,46.069C67.568,45.967 67.769,45.931 67.962,45.967C68.165,46 68.348,46.11 68.473,46.273C68.609,46.443 68.643,46.63 68.575,46.835L68.115,49.692C67.911,51.122 67.809,52.024 67.809,52.398C67.809,52.977 68.422,53.708 69.647,54.594L70.261,55.052C71.555,56.073 72.201,57.009 72.201,57.859C72.201,58.404 72.049,59.033 71.742,59.748C72.287,58.795 72.56,57.74 72.56,56.583C72.56,55.903 72.134,55.188 71.282,54.439C70.091,53.385 69.495,52.313 69.495,51.224C69.495,50.646 69.647,49.557 69.955,47.958L70.567,44.231C70.6,44.028 70.71,43.845 70.874,43.721C71.044,43.619 71.231,43.585 71.436,43.619C71.69,43.661 71.908,43.823 72.023,44.053C72.093,44.185 72.102,44.329 72.049,44.487L71.998,44.896C72.951,44.113 73.615,43.449 73.99,42.904C74.678,41.319 75.411,39.753 76.187,38.208C77.515,35.828 78.997,34.296 80.63,33.614C81.618,33.139 83.968,32.849 87.68,32.747L88.957,32.441C89.434,32.271 89.757,32.407 89.927,32.849L89.953,32.9C90.16,33.348 90.016,33.653 89.519,33.82C88.906,34.09 88.327,34.228 87.782,34.228C84.376,34.363 82.197,34.618 81.243,34.993C79.916,35.571 78.689,36.898 77.565,38.973C77.021,39.927 76.271,41.476 75.318,43.619C74.875,44.436 73.751,45.524 71.946,46.886L71.64,47.141L71.436,48.264C71.163,49.659 71.026,50.646 71.026,51.224C71.026,51.837 71.453,52.517 72.304,53.266C73.496,54.321 74.092,55.426 74.092,56.583C74.092,58.251 73.649,59.748 72.764,61.075C71.776,62.539 70.669,63.271 69.444,63.271C69.308,63.305 69.154,63.271 68.984,63.168C68.814,63.032 68.694,62.828 68.626,62.556C68.592,60.446 68.541,59.204 68.473,58.829C68.337,58.387 67.826,57.876 66.94,57.298L66.327,56.941C65.885,56.703 65.357,56.345 64.744,55.869C64.607,55.731 64.518,55.552 64.489,55.359C64.454,55.158 64.51,54.952 64.642,54.797C64.664,54.776 64.691,54.759 64.719,54.747C64.84,54.637 64.991,54.566 65.152,54.542C65.392,54.508 65.579,54.559 65.715,54.695C66.021,54.967 66.498,55.273 67.145,55.615L67.707,55.971C69.171,56.924 69.92,57.809 69.955,58.625L70.057,59.799C70.465,58.949 70.669,58.302 70.669,57.859C70.669,57.485 70.21,56.941 69.291,56.227L68.78,55.869C67.11,54.645 66.276,53.487 66.276,52.399L66.327,51.633L64.795,53.113C64.645,53.247 64.467,53.393 64.259,53.547ZM43.749,50.739C43.609,50.893 43.404,50.969 43.137,50.969C42.994,50.976 42.851,50.94 42.728,50.867L41.502,49.948C41.147,49.659 41.096,49.328 41.349,48.953C41.365,48.927 41.381,48.901 41.399,48.876C41.707,48.502 42.063,48.469 42.473,48.774L43.596,49.591C44.039,49.897 44.106,50.255 43.8,50.663C43.784,50.688 43.767,50.714 43.75,50.739L43.749,50.739ZM21.3,42.547C21.177,42.654 21.027,42.725 20.866,42.751C19.64,42.989 18.396,43.296 17.136,43.67C15.706,44.113 14.276,44.657 12.846,45.304L17.341,44.384C20.201,43.772 24.321,43.789 29.703,44.436C35.015,44.98 38.438,45.796 39.97,46.886C40.413,47.192 40.481,47.55 40.175,47.958C40.161,47.977 40.144,47.994 40.124,48.008C39.981,48.203 39.752,48.318 39.51,48.314L39.102,48.161C37.706,47.243 34.522,46.494 29.549,45.916C24.305,45.304 20.355,45.286 17.699,45.864C13.953,46.614 11.569,47.074 10.547,47.244L8.453,47.704C8.078,47.804 7.789,47.668 7.584,47.294C7.414,46.886 7.5,46.563 7.84,46.324C10.326,44.657 13.272,43.278 16.677,42.19C17.975,41.832 19.287,41.525 20.61,41.27C20.804,41.235 21.004,41.271 21.172,41.373C21.342,41.509 21.445,41.68 21.479,41.883L21.479,41.909C21.542,42.093 21.503,42.298 21.376,42.445C21.349,42.478 21.324,42.512 21.3,42.547ZM49.88,59.493C48.723,61.092 48.144,62.25 48.144,62.963L51.106,72.969L51.872,72.969L51.106,70.263C50.084,66.656 49.574,64.699 49.574,64.393C49.574,63.338 50.306,61.857 51.77,59.953C52.928,58.387 53.507,57.383 53.507,56.941L51.617,56.481C51.378,57.196 50.8,58.201 49.88,59.493ZM65.817,73.223C65.953,73.358 66.027,73.543 66.022,73.734C66.022,74.244 65.767,74.5 65.256,74.5L64.746,74.5C64.234,74.5 63.979,74.244 63.979,73.734C63.979,73.224 64.234,72.969 64.745,72.969L65.255,72.969C65.46,72.969 65.647,73.053 65.817,73.224L65.817,73.223Z" style="fill:rgb(51,51,51);"/>
        </g>
        <g transform="matrix(-1.13966,2.79136e-16,2.79136e-16,1.13966,106.765,-4.93577)">
            <path d="M26.28,41.297C26.859,41.251 27.437,41.217 28.016,41.195C28.063,41.62 28.319,41.833 28.782,41.833L29.804,41.833C31.473,41.833 34.112,41.985 37.722,42.292C38.748,42.42 39.82,42.497 40.94,42.522C41.009,42.551 41.077,42.576 41.144,42.599C43.698,43.381 45.827,43.772 47.529,43.772C48.653,43.772 50.271,43.534 52.382,43.058C54.936,42.479 56.622,42.138 57.439,42.036C57.712,42.003 59.21,42.003 61.935,42.036C64.012,41.871 65.264,41.335 65.689,40.43C66.647,40.82 67.405,41.016 67.962,41.016C68.337,41.016 68.626,40.999 68.831,40.965C69.341,40.897 69.546,40.607 69.444,40.098L69.444,40.071C69.83,39.883 70.176,39.624 70.465,39.306L70.874,39.484C71.146,39.484 71.368,39.349 71.538,39.076L72.048,38.106C72.662,36.779 72.968,35.249 72.968,33.513C72.968,31.028 73.07,29.48 73.275,28.868C73.785,27.644 75.08,27.031 77.157,27.031C80.767,27.031 83.491,27.234 85.33,27.644C85.79,27.774 86.088,27.604 86.224,27.133C86.781,27.266 87.3,27.419 87.782,27.593C87.726,27.758 87.726,27.938 87.782,28.103C87.884,28.307 88.02,28.443 88.191,28.511C89.382,29.021 90.301,29.685 90.949,30.501L90.949,30.604C90.166,30.535 87.237,30.45 82.163,30.349C81.652,30.417 81.396,30.672 81.396,31.114C81.329,31.625 81.566,31.88 82.112,31.88C82.576,31.885 83.028,31.894 83.466,31.905C82.646,32.208 81.633,32.455 80.426,32.645C77.975,33.054 76.356,34.193 75.573,36.065C75.199,36.985 74.62,38.601 73.836,40.915C73.327,42.109 72.723,43.156 72.023,44.053C71.908,43.823 71.689,43.661 71.435,43.619C71.242,43.583 71.042,43.62 70.874,43.722C70.71,43.846 70.6,44.029 70.567,44.232L69.955,47.958C69.647,49.557 69.495,50.646 69.495,51.224C69.495,52.314 70.091,53.384 71.282,54.439C72.134,55.189 72.56,55.903 72.56,56.583C72.56,57.74 72.287,58.795 71.742,59.748C72.049,59.033 72.202,58.404 72.202,57.859C72.202,57.009 71.555,56.073 70.261,55.052L69.647,54.594C68.422,53.708 67.809,52.977 67.809,52.398C67.809,52.024 67.911,51.122 68.115,49.692L68.575,46.835C68.646,46.643 68.606,46.428 68.473,46.273C68.348,46.11 68.165,46 67.962,45.967C67.769,45.931 67.568,45.967 67.4,46.069C67.237,46.194 67.127,46.376 67.094,46.579L66.813,48.213C66.176,48.711 65.469,49.17 64.693,49.591C64.042,49.942 63.25,50.317 62.318,50.714C62.174,49.939 61.911,49.071 61.526,48.11L61.321,47.6C61.151,47.09 60.828,46.954 60.351,47.192C59.908,47.362 59.772,47.686 59.942,48.162L60.096,48.672C60.641,50.102 60.913,51.207 60.913,51.989C60.913,52.704 60.623,53.589 60.044,54.645C59.261,55.869 58.223,57.18 56.929,58.575C53.932,61.739 52.706,64.665 53.25,67.354C53.795,69.974 54.8,71.641 56.265,72.355L57.439,72.969L53.455,72.969L51.105,64.393C51.105,63.645 51.735,62.47 52.995,60.871C54.392,59 55.089,57.673 55.089,56.891C55.089,56.618 55.039,56.345 54.936,56.073L54.936,56.023C54.698,55.103 54.034,53.793 52.944,52.092L50.8,48.57C50.696,48.398 50.532,48.271 50.34,48.213C50.148,48.142 49.933,48.181 49.778,48.314C49.608,48.417 49.488,48.57 49.42,48.774C49.352,48.978 49.387,49.165 49.523,49.336L50.723,51.326C50.591,51.36 50.463,51.377 50.34,51.377C49.318,51.377 48.16,50.901 46.866,49.948C45.266,48.621 43.921,47.583 42.831,46.835C38.438,43.772 32.785,42.241 25.872,42.241C24.521,42.241 22.997,42.344 21.3,42.547C21.323,42.514 21.348,42.48 21.376,42.445C21.503,42.298 21.542,42.093 21.479,41.909C22.191,41.779 22.906,41.669 23.624,41.579C23.657,41.985 23.895,42.19 24.339,42.19L24.441,42.139L25.617,42.036C26.104,42.036 26.325,41.79 26.28,41.296L26.28,41.297ZM59.942,46.069C60.419,45.831 60.538,45.49 60.3,45.048L60.198,44.793C60.062,44.283 59.755,44.095 59.278,44.231C58.768,44.368 58.58,44.674 58.716,45.151L58.92,45.711C59.091,45.984 59.33,46.121 59.636,46.121L59.942,46.069ZM81.396,28.715C81.396,28.205 81.141,27.949 80.63,27.949L79.61,27.949C79.099,27.949 78.843,28.204 78.843,28.715C78.843,29.226 79.099,29.48 79.61,29.48L80.631,29.48C80.836,29.48 81.035,29.408 81.193,29.276C81.324,29.119 81.397,28.92 81.397,28.715L81.396,28.715Z" style="fill:rgb(192,132,252);"/>
        </g>
        <g transform="matrix(-1.13966,2.79136e-16,2.79136e-16,1.13966,106.765,-4.93577)">
            <path d="M65.689,40.43C65.264,41.335 64.012,41.871 61.935,42.036C59.21,42.003 57.712,42.003 57.439,42.036C56.622,42.139 54.936,42.479 52.382,43.058C50.271,43.534 48.653,43.772 47.529,43.772C45.827,43.772 43.699,43.381 41.144,42.599C41.075,42.576 41.007,42.55 40.94,42.521C41.31,42.539 41.686,42.547 42.063,42.547C43.323,42.547 44.312,42.479 45.027,42.344C46.457,42.139 49.232,41.509 53.353,40.454C56.997,39.468 59.908,38.974 62.088,38.974C62.531,38.974 63.382,39.298 64.642,39.944C65.019,40.127 65.367,40.29 65.689,40.43Z" style="fill:rgb(216,180,254);"/>
        </g>
        <g transform="matrix(-1.13966,2.79136e-16,2.79136e-16,1.13966,106.765,-4.93577)">
            <path d="M72.023,44.053C72.723,43.156 73.327,42.109 73.836,40.914C74.62,38.601 75.199,36.984 75.573,36.065C76.356,34.193 77.975,33.054 80.426,32.645C81.633,32.455 82.646,32.208 83.466,31.905C87.612,31.958 90.158,32.035 91.102,32.135L90.693,32.441C90.442,32.608 90.196,32.761 89.953,32.901L89.927,32.849C89.757,32.407 89.434,32.271 88.957,32.441L87.68,32.747C83.968,32.849 81.618,33.139 80.63,33.614C78.996,34.296 77.515,35.827 76.187,38.208C75.411,39.753 74.678,41.319 73.99,42.904C73.615,43.449 72.951,44.114 71.998,44.896L72.048,44.487C72.102,44.345 72.092,44.188 72.023,44.053ZM50.723,51.326L51.667,52.857C52.28,53.845 52.723,54.645 52.995,55.257C52.655,55.188 52.11,55.019 51.36,54.747C49.964,54.134 48.585,53.317 47.223,52.297L46.099,51.429C45.69,51.122 45.333,51.156 45.027,51.531C45.001,51.563 44.977,51.598 44.95,51.633L43.75,50.739L43.8,50.663C44.107,50.255 44.04,49.897 43.596,49.591L42.473,48.774C42.063,48.469 41.707,48.502 41.399,48.876C41.381,48.901 41.365,48.927 41.349,48.953C40.886,48.595 40.478,48.28 40.123,48.009C40.142,47.995 40.159,47.978 40.173,47.958C40.48,47.55 40.412,47.192 39.969,46.886C38.437,45.796 35.014,44.98 29.702,44.436C24.321,43.789 20.201,43.772 17.34,44.385L12.845,45.304C14.275,44.657 15.705,44.114 17.135,43.67C18.395,43.296 19.639,42.99 20.865,42.751C21.026,42.725 21.176,42.654 21.299,42.547C22.996,42.344 24.519,42.241 25.871,42.241C32.784,42.241 38.437,43.772 42.83,46.835C43.92,47.583 45.265,48.621 46.865,49.948C48.159,50.901 49.317,51.377 50.339,51.377C50.462,51.377 50.59,51.36 50.722,51.327L50.723,51.326ZM64.719,54.746C64.467,54.418 64.322,54.095 64.284,53.776C64.269,53.7 64.261,53.623 64.259,53.546C64.467,53.393 64.646,53.247 64.795,53.113L66.327,51.633L66.277,52.398C66.277,53.488 67.111,54.645 68.78,55.869L69.29,56.227C70.21,56.941 70.67,57.485 70.67,57.859C70.67,58.302 70.465,58.949 70.057,59.799L69.955,58.625C69.92,57.809 69.171,56.924 67.707,55.971L67.145,55.614C66.498,55.274 66.021,54.967 65.715,54.695C65.579,54.559 65.391,54.508 65.152,54.542C64.991,54.566 64.84,54.637 64.719,54.746ZM49.879,59.493C50.799,58.2 51.377,57.196 51.616,56.481L53.506,56.941C53.506,57.384 52.926,58.387 51.769,59.953C50.305,61.857 49.573,63.338 49.573,64.393C49.573,64.699 50.083,66.656 51.105,70.263L51.871,72.969L51.105,72.969L48.143,62.964C48.143,62.25 48.722,61.092 49.879,59.494L49.879,59.493ZM66.813,48.213L66.634,49.183L63.774,51.989L62.292,53.113C62.395,52.773 62.445,52.398 62.445,51.989C62.445,51.598 62.403,51.172 62.318,50.714C63.126,50.376 63.919,50.001 64.693,49.591C65.469,49.17 66.176,48.711 66.813,48.213Z" style="fill:rgb(168,85,247);"/>
        </g>
    </g>
</svg>
