<svg xmlns="http://www.w3.org/2000/svg" xmlns:xlink="http://www.w3.org/1999/xlink" version="1.1" x="0px" y="0px" viewBox="0 0 100 100" enable-background="new 0 0 100 100" xml:space="preserve"><path fill-rule="evenodd" clip-rule="evenodd" d="M25.6318359,42.0507813l-1.2001953,0.0996094l-0.0996094,0.0498047  c-0.4667969,0-0.7001953-0.25-0.7001953-0.75c-0.0332031-0.2001953,0.0166016-0.3828125,0.1499023-0.5498047s0.300293-0.25,0.5-0.25  l1.2001953-0.0996094c0.199707-0.0341797,0.3833008,0.0166016,0.5498047,0.1494141c0.1669922,0.1337891,0.25,0.2998047,0.25,0.5  C26.3486328,41.7666016,26.1318359,42.0507813,25.6318359,42.0507813z M28.7817383,40.3007813h1.050293  c1.9663086,0,4.6499023,0.1660156,8.0498047,0.5c3.1000977,0.2666016,5.3999023,0.2832031,6.8999023,0.0498047  c1.9667969-0.3671875,4.7001953-1,8.2001953-1.9003906c3.8999023-1,6.9331055-1.5,9.1000977-1.5  c0.699707,0,1.7832031,0.3671875,3.25,1.1005859C66.5986328,39.1835938,67.4819336,39.5,67.9819336,39.5h0.6000977  c0.5-0.0996094,0.7832031,0.1005859,0.8496094,0.6005859c0.1000977,0.5-0.0996094,0.7832031-0.5996094,0.8496094  C68.6318359,40.9833984,68.3486328,41,67.9819336,41c-0.7666016,0-1.8833008-0.3496094-3.3500977-1.0498047  c-1.2666016-0.6660156-2.1166992-1-2.5498047-1c-2.1669922,0-5.0834961,0.5-8.75,1.5  c-4.1000977,1.0664063-6.8666992,1.7001953-8.300293,1.9003906c-0.7333984,0.1328125-1.7167969,0.2001953-2.949707,0.2001953  c-1.5336914,0-2.9833984-0.0839844-4.3500977-0.25C34.1318359,42,31.4985352,41.8505859,29.8320313,41.8505859h-1.050293  c-0.5,0-0.75-0.2666016-0.75-0.7998047C28.0317383,40.5507813,28.2817383,40.3007813,28.7817383,40.3007813z M21.4819336,41.9003906  c0.0664063,0.2001953,0.0332031,0.3837891-0.1000977,0.5498047c-0.1333008,0.1669922-0.2998047,0.2666016-0.5,0.2998047  c-1.2333984,0.2333984-2.4833984,0.5341797-3.75,0.9003906c-1.4331055,0.4667969-2.8666992,1.0166016-4.2998047,1.6503906  l4.5-0.9003906c2.8666992-0.6337891,6.9829102-0.6162109,12.3496094,0.0498047  c5.3334961,0.5332031,8.7670898,1.3505859,10.300293,2.4501953c0.4331055,0.2998047,0.5,0.6503906,0.199707,1.0498047  c-0.1665039,0.2333984-0.3833008,0.3505859-0.6499023,0.3505859l-0.449707-0.1503906  c-1.3666992-0.9003906-4.550293-1.6503906-9.550293-2.25c-5.2333984-0.5996094-9.1831055-0.6162109-11.8500977-0.0498047  c-3.7329102,0.7666016-6.1166992,1.2333984-7.1499023,1.3994141l-2.1000977,0.4501953  c-0.3666992,0.1005859-0.6499023-0.0332031-0.8496094-0.3994141c-0.1669922-0.4003906-0.0834961-0.7333984,0.25-1  c2.5-1.6669922,5.449707-3.0341797,8.8496094-4.1005859c1.2333984-0.3330078,2.550293-0.6494141,3.9501953-0.9501953  c0.2001953-0.0332031,0.3833008,0,0.5498047,0.1005859C21.3486328,41.4833984,21.4487305,41.6669922,21.4819336,41.9003906z   M70.6816406,37.5c0.5-1.1660156,0.75-2.5,0.75-4c0-2.7998047,0.1503906-4.5332031,0.4501953-5.1992188  c0.7333984-1.8671875,2.5-2.8007813,5.2998047-2.8007813c3.5336914,0,6.3666992,0.2167969,8.5,0.6503906  c0.5,0.1337891,0.6835938,0.4501953,0.550293,0.9501953s-0.4335938,0.6835938-0.8999023,0.5498047  c-1.8334961-0.4003906-4.550293-0.5996094-8.1503906-0.5996094c-2.0996094,0-3.3999023,0.5996094-3.8999023,1.7998047  c-0.199707,0.6328125-0.2998047,2.1835938-0.2998047,4.6494141c0,1.7333984-0.3168945,3.2666016-0.9501953,4.6005859l-0.5,0.9501953  C71.3652344,39.3505859,71.1484375,39.5,70.8818359,39.5l-0.3500977-0.1494141  c-0.1665039-0.1337891-0.2832031-0.2998047-0.3500977-0.5c-0.0664063-0.2001953-0.0332031-0.3837891,0.1000977-0.5498047  L70.6816406,37.5z M71.9819336,44.9003906c0.9667969-0.7998047,1.6333008-1.4667969,2-2  c0.6665039-1.5,1.3999023-3.0664063,2.199707-4.7001953c1.3334961-2.3662109,2.8168945-3.8994141,4.4501953-4.5996094  c1-0.4667969,3.3500977-0.75,7.0498047-0.8505859l1.300293-0.2998047c0.4667969-0.1660156,0.7832031-0.0332031,0.949707,0.4003906  c0.2333984,0.4667969,0.1000977,0.7832031-0.3999023,0.9501953c-0.6333008,0.2666016-1.2167969,0.3994141-1.75,0.3994141  C84.3818359,34.3671875,82.1987305,34.6337891,81.2319336,35c-1.3334961,0.5673828-2.550293,1.8837891-3.6499023,3.9501953  c-0.5668945,0.9667969-1.3168945,2.5166016-2.25,4.6503906c-0.4335938,0.8330078-1.5668945,1.9335938-3.4003906,3.2998047  l-0.2998047,0.25L71.4316406,48.25c-0.2666016,1.4003906-0.3999023,2.3837891-0.3999023,2.9501953  c0,0.6337891,0.4335938,1.3164063,1.300293,2.0498047c1.1665039,1.0673828,1.75,2.1835938,1.75,3.3505859  c0,1.6660156-0.4335938,3.1494141-1.300293,4.4501953c-1,1.4658203-2.1166992,2.1992188-3.3500977,2.1992188  c-0.1333008,0.0341797-0.2832031,0-0.449707-0.0996094c-0.1669922-0.1337891-0.2832031-0.3330078-0.3500977-0.5996094  c-0.0332031-2.1005859-0.0834961-3.3339844-0.1499023-3.7001953c-0.1333008-0.4667969-0.6499023-0.9833984-1.550293-1.5498047  l-0.5996094-0.3505859c-0.4335938-0.2333984-0.9667969-0.5996094-1.6000977-1.0996094  c-0.1333008-0.1337891-0.2167969-0.2998047-0.25-0.5s0.0166016-0.3837891,0.1499023-0.5498047  c0.1333008-0.1337891,0.2998047-0.2167969,0.5-0.25c0.2666016-0.0341797,0.4667969,0.0166016,0.6000977,0.1494141  c0.2998047,0.2666016,0.7666016,0.5664063,1.3999023,0.9003906l0.6000977,0.3496094  c1.4331055,0.9667969,2.1831055,1.8505859,2.25,2.6503906l0.1000977,1.2001953  c0.3999023-0.8671875,0.5996094-1.5166016,0.5996094-1.9501953c0-0.3671875-0.4663086-0.9169922-1.3999023-1.6503906l-0.5-0.3496094  c-1.6665039-1.2001953-2.5-2.3505859-2.5-3.4501953l0.050293-0.75l-1.550293,1.4501953  c-0.3330078,0.2998047-0.7998047,0.6835938-1.3999023,1.1494141c-0.6333008,0.5-1.3500977,0.9501953-2.1499023,1.3505859  c-0.800293,1.2666016-1.8833008,2.6162109-3.25,4.0498047c-2.6000977,2.7998047-3.6835938,5.25-3.25,7.3496094  c0.4667969,2.2001953,1.199707,3.5166016,2.199707,3.9501953c1.2001953,0.5332031,2.1000977,1.2001953,2.7001953,2h1.7998047  c0.2001953,0,0.3833008,0.0839844,0.550293,0.25c0.1333008,0.1337891,0.199707,0.3164063,0.199707,0.5498047  c0,0.5-0.25,0.75-0.75,0.75H48.3818359c-0.5,0-0.75-0.25-0.75-0.75c0-0.5332031,0.25-0.7998047,0.75-0.7998047h1.1499023  l-1.2998047-4.0498047c-1.0668945-3.6669922-1.6000977-5.5830078-1.6000977-5.75V63c0-1.0332031,0.6499023-2.5,1.9501953-4.3994141  c0.8999023-1.2001953,1.449707-2.1171875,1.6499023-2.75C49.0317383,55.3173828,47.715332,54.5341797,46.2817383,53.5  l-1.1499023-0.8994141c-0.3666992-0.2998047-0.3999023-0.6503906-0.1000977-1.0498047  c0.300293-0.4003906,0.6499023-0.4501953,1.050293-0.1503906l1.1499023,0.9003906c1.3666992,1,2.75,1.8164063,4.1499023,2.4492188  c0.7333984,0.2666016,1.2666016,0.4335938,1.6000977,0.5c-0.2666016-0.5996094-0.7001953-1.3994141-1.300293-2.3994141  l-2.1499023-3.5c-0.1333008-0.1669922-0.1665039-0.3671875-0.1000977-0.6005859  c0.0668945-0.1992188,0.1835938-0.3496094,0.3500977-0.4492188c0.1669922-0.1337891,0.3500977-0.1669922,0.550293-0.1005859  c0.199707,0.0664063,0.3496094,0.1835938,0.449707,0.3505859l2.1499023,3.5498047c1.1000977,1.7001953,1.7670898,3,2,3.8994141  v0.0507813c0.1000977,0.2998047,0.1503906,0.5830078,0.1503906,0.8496094c0,0.7666016-0.7001953,2.0830078-2.1000977,3.9501953  c-1.2333984,1.5996094-1.8500977,2.7832031-1.8500977,3.5498047l2.3500977,8.5498047h3.949707l-1.1499023-0.5996094  c-1.4667969-0.7001953-2.4833984-2.3671875-3.0498047-5c-0.5332031-2.7001953,0.699707-5.6337891,3.699707-8.7998047  c1.300293-1.3671875,2.3334961-2.6669922,3.1000977-3.9003906C60.6318359,53.5839844,60.9316406,52.7001953,60.9316406,52  c0-0.7998047-0.2832031-1.9160156-0.8496094-3.3496094l-0.1503906-0.5  c-0.1665039-0.4667969-0.0332031-0.7832031,0.4003906-0.9501953c0.5-0.2333984,0.8330078-0.0996094,1,0.4003906l0.199707,0.5  C62.1318359,49.6337891,62.4316406,50.9335938,62.4316406,52c0,0.4003906-0.0498047,0.7666016-0.1499023,1.1005859l1.5-1.1005859  l2.8500977-2.7998047l0.4501953-2.5996094c0.0332031-0.2333984,0.1333008-0.4169922,0.2998047-0.5498047  c0.2001953-0.1005859,0.3999023-0.1337891,0.6000977-0.1005859c0.199707,0.0332031,0.3666992,0.1337891,0.5,0.2998047  c0.1333008,0.1669922,0.1665039,0.3671875,0.1000977,0.6005859l-0.4501953,2.8496094  c-0.2001953,1.4335938-0.2998047,2.3339844-0.2998047,2.7001953c0,0.5664063,0.5996094,1.2998047,1.7998047,2.2001953  l0.6499023,0.4501953c1.2666016,1.0332031,1.8999023,1.9658203,1.8999023,2.7998047  c0,0.5332031-0.1499023,1.1660156-0.449707,1.8994141c0.5664063-0.9658203,0.8500977-2.0166016,0.8500977-3.1494141  c0-0.7001953-0.4335938-1.4169922-1.300293-2.1503906c-1.199707-1.0664063-1.7998047-2.1494141-1.7998047-3.25  c0-0.5664063,0.1665039-1.6494141,0.5-3.25L70.5820313,44.25c0.0332031-0.2333984,0.1333008-0.4160156,0.2998047-0.5498047  c0.1665039-0.0996094,0.3500977-0.1328125,0.5498047-0.0996094c0.2001953,0.0332031,0.3666992,0.1328125,0.5,0.2998047  c0.1333008,0.2001953,0.1669922,0.4003906,0.1000977,0.5996094L71.9819336,44.9003906z M60.1816406,44.8007813l0.1000977,0.25  c0.2666016,0.4326172,0.1499023,0.7666016-0.3500977,1l-0.2998047,0.0498047c-0.2998047,0-0.5332031-0.1337891-0.7001953-0.4003906  l-0.199707-0.5498047c-0.1333008-0.4667969,0.0498047-0.7666016,0.5498047-0.9003906  C59.7485352,44.0839844,60.0483398,44.2666016,60.1816406,44.8007813z M41.3818359,48.8505859  c0.3334961-0.3671875,0.7001953-0.4003906,1.1000977-0.1005859l1.1000977,0.8505859  c0.4663086,0.2998047,0.5332031,0.6494141,0.199707,1.0498047c-0.1333008,0.2001953-0.3500977,0.2998047-0.6499023,0.2998047  c-0.1665039,0-0.2998047-0.0332031-0.3999023-0.0996094l-1.25-0.9003906  C41.1152344,49.6503906,41.0820313,49.2841797,41.3818359,48.8505859z M51.6318359,56.5  c-0.2333984,0.7001953-0.8168945,1.7001953-1.75,3c-1.1665039,1.6005859-1.75,2.75-1.75,3.4501953l3,10h0.75l-0.75-2.7001953  c-1.0332031-3.5996094-1.5498047-5.5498047-1.5498047-5.8496094c0-1.0664063,0.7329102-2.5498047,2.199707-4.4501953  c1.1669922-1.5664063,1.75-2.5664063,1.75-3L51.6318359,56.5z M64.7319336,74.5c-0.5,0-0.75-0.25-0.75-0.75  c0-0.5332031,0.25-0.7998047,0.75-0.7998047h0.5498047c0.2001953,0,0.3833008,0.0839844,0.550293,0.25  c0.1333008,0.1337891,0.199707,0.3164063,0.199707,0.5498047c0,0.5-0.25,0.75-0.75,0.75H64.7319336z M78.8320313,28.7001953  c0-0.5,0.2666016-0.75,0.7998047-0.75h1c0.5,0,0.75,0.25,0.75,0.75c0,0.2001953-0.0668945,0.3837891-0.2001953,0.5498047  c-0.1665039,0.1669922-0.3496094,0.25-0.5498047,0.25h-1C79.0986328,29.5,78.8320313,29.2333984,78.8320313,28.7001953z   M82.1816406,30.3505859c5.0668945,0.0996094,7.9833984,0.1835938,8.75,0.25V30.5c-0.6333008-0.8330078-1.5498047-1.5-2.75-2  c-0.1665039-0.0664063-0.2998047-0.1992188-0.3999023-0.3994141C87.715332,27.9003906,87.7319336,27.7001953,87.8320313,27.5  c0.0664063-0.1660156,0.199707-0.2998047,0.3999023-0.3994141c0.199707-0.0664063,0.4165039-0.0498047,0.6499023,0.0498047  c1.4331055,0.6337891,2.5668945,1.5,3.3999023,2.5996094c0.1000977,0.1669922,0.1499023,0.3173828,0.1499023,0.4501953  l0.050293,1.25c0.0664063,0.2333984-0.0332031,0.4667969-0.300293,0.7001953  c-0.0996094,0.0996094-0.25,0.1503906-0.449707,0.1503906l-0.25-0.1005859  c-0.5332031-0.1328125-3.6499023-0.2333984-9.3500977-0.2998047c-0.5668945,0-0.8168945-0.2666016-0.75-0.7998047  C81.3818359,30.6669922,81.6484375,30.4169922,82.1816406,30.3505859z"></path></svg>